# xmcd CD database file
#
# Track frame offsets:
#	150
#	16948
#	29630
#	49401
#	58416
#	85954
#	104969
#	127587
#	153101
#	168576
#	173064
#	188000
#	205230
#	221539
#	242453
#	256948
#	270809
#	289501
#	304662
#
# Disc length: 4288 seconds
#
# Revision: 8
# Processed by: cddbd v1.5.2PL0 Copyright (c) Steve Scherf et al.
# Submitted via: CDex 1.51
#
DISCID=0410be13
DTITLE=Jethro Tull - 40th Anniversary Collectors Edition CD 1
DYEAR=2008
DGENRE=Rock
TTITLE0=My Sunday Feeling [Mono Mix]
TTITLE1=Some Day The Sun Won't Shine [Mono Mix]
TTITLE2=Beggars' Farm [Mono Mix]
TTITLE3=Move On Alone [Mono Mix]
TTITLE4=Serenade To A Cuckoo [Mono Mix]
TTITLE5=Dharma For One [Mono Mix]
TTITLE6=It's Breaking Me Up [Mono Mix]
TTITLE7=Cat's Squirrel [Mono Mix]
TTITLE8=A Song For Jeffrey [Mono Mix]
TTITLE9=Round [Mono Mix]
TTITLE10=So Much Trouble [BBC Session]
TTITLE11=My Sunday Feeling [BBC Session]
TTITLE12=Serenade To A Cuckoo [BBC Session]
TTITLE13=Cat's Squirrel [BBC Session]
TTITLE14=A Song For Jeffrey [BBC Session]
TTITLE15=Love Story [BBC Session]
TTITLE16=Stormy Monday [BBC Session]
TTITLE17=Beggars' Farm [BBC Session]
TTITLE18=Dharma For One [BBC Session]
EXTD=YEAR: 2008
EXTT0=
EXTT1=
EXTT2=
EXTT3=
EXTT4=
EXTT5=
EXTT6=
EXTT7=
EXTT8=
EXTT9=
EXTT10=
EXTT11=
EXTT12=
EXTT13=
EXTT14=
EXTT15=
EXTT16=
EXTT17=
EXTT18=
PLAYORDER=
